# xmcd
#
# Track frame offsets:
#	150
#	12682
#	26935
#	43034
#	56013
#	66972
#	83750
#	99176
#	113815
#	127573
#
# Disc length: 1890 seconds
#
# Revision: 1
# Processed by: cddbd v1.5.2PL0 Copyright (c) Steve Scherf et al.
# Submitted via: audiograbber 1.83.01
#
DISCID=7d07600a
DTITLE=David Hill - Watching The World Go By 
DYEAR=1999
DGENRE=Country
TTITLE0=Missing You
TTITLE1=The Wrong Side Of Town
TTITLE2=Looking Out My Window
TTITLE3=I Give My Word
TTITLE4=One Last Turn On The Dance Floor
TTITLE5=If I Could Only Chance The Weather
TTITLE6=Honky Tonk Truble
TTITLE7=Thanks To Me
TTITLE8=I Guess I Was Wrong
TTITLE9=Goodbye For Now
EXTD=
EXTT0=
EXTT1=
EXTT2=
EXTT3=
EXTT4=
EXTT5=
EXTT6=
EXTT7=
EXTT8=
EXTT9=
PLAYORDER=
